# xmcd
#
# Track frame offsets:
#	150
#	17625
#	31962
#	50862
#	71450
#	88237
#	104525
#	121575
#	141600
#	156275
#	175837
#
# Disc length: 2538 seconds
#
# Revision: 6
# Processed by: cddbd v1.5.1PL0 Copyright (c) Steve Scherf et al.
# Submitted via: AudioConverter v4.5 Copyright (c) AC Productions Ltd
#
DISCID=9909e80b
DTITLE=___z_Y - - ____t_z
DYEAR=1900
DGENRE=
TTITLE0=_____t_z
TTITLE1=_____P__
TTITLE2=____
TTITLE3=_M______
TTITLE4=_______R_v__
TTITLE5=_L__
TTITLE6=Take My Hand
TTITLE7=_\K_O__
TTITLE8=___S_____O
TTITLE9=_@___Q_R_A
TTITLE10=___p___R
EXTD=
EXTT0=
EXTT1=
EXTT2=
EXTT3=
EXTT4=
EXTT5=
EXTT6=
EXTT7=
EXTT8=
EXTT9=
EXTT10=
PLAYORDER=
